<?xml version="1.0" encoding="UTF-8"?>
<svg version="1.1" xmlns="http://www.w3.org/2000/svg" width="131" height="68">
<path d="M0 0 C43.23 0 86.46 0 131 0 C131 22.44 131 44.88 131 68 C87.77 68 44.54 68 0 68 C0 45.56 0 23.12 0 0 Z " fill="#FEFDFC" transform="translate(0,0)"/>
<path d="M0 0 C1.32 0 2.64 0 4 0 C6.25 1 6.25 1 8 2 C7.835 2.598125 7.67 3.19625 7.5 3.8125 C6.8885876 6.11344336 6.8885876 6.11344336 7 9 C7 14 7 19 7 24 C7.66 24 8.32 24 9 24 C9 24.66 9 25.32 9 26 C7.35 26.33 5.7 26.66 4 27 C0.18211975 22.18615099 0.29932075 16.89352231 0 11 C-1.65 11.33 -3.3 11.66 -5 12 C-5.03738281 13.12019531 -5.07476562 14.24039063 -5.11328125 15.39453125 C-5.17894257 16.8672209 -5.24538986 18.33987566 -5.3125 19.8125 C-5.34633789 20.91948242 -5.34633789 20.91948242 -5.38085938 22.04882812 C-5.6546608 27.54974762 -5.6546608 27.54974762 -7.54296875 30.01171875 C-8.26419922 30.50091797 -8.26419922 30.50091797 -9 31 C-9.99 30.67 -10.98 30.34 -12 30 C-11.67 23.73 -11.34 17.46 -11 11 C-11.99 11 -12.98 11 -14 11 C-14 10.34 -14 9.68 -14 9 C-13.01 9 -12.02 9 -11 9 C-10.9175 8.071875 -10.835 7.14375 -10.75 6.1875 C-10 3 -10 3 -8.3125 1.125 C-5.36493966 -0.30894828 -3.24845155 -0.20302822 0 0 Z " fill="#EE8D3A" transform="translate(80,25)"/>
<path d="M0 0 C0.66 0.66 1.32 1.32 2 2 C1.625 4.125 1.625 4.125 1 6 C0.484375 5.690625 -0.03125 5.38125 -0.5625 5.0625 C-3.66665423 3.70940713 -6.65115007 3.38640576 -10 3 C-9.97206843 5.402675 -9.97206843 5.402675 -9 8 C-6.26336346 9.91350527 -6.26336346 9.91350527 -2.9375 11.3125 C-1.83277344 11.82425781 -0.72804688 12.33601563 0.41015625 12.86328125 C1.26480469 13.23839844 2.11945312 13.61351562 3 14 C3.48756219 20.33830846 3.48756219 20.33830846 1.25 23.375 C-2.94776969 26.40672255 -6.87726758 26.36590946 -12 26 C-14.4375 24.8125 -14.4375 24.8125 -16 23 C-16.25 20.3125 -16.25 20.3125 -16 18 C-12.125 19.875 -12.125 19.875 -11 21 C-9.48071962 21.07179964 -7.95832518 21.08392007 -6.4375 21.0625 C-5.61121094 21.05347656 -4.78492188 21.04445313 -3.93359375 21.03515625 C-3.29550781 21.02355469 -2.65742187 21.01195313 -2 21 C-3.03281758 18.23603932 -3.73882644 17.15573356 -6.3125 15.62109375 C-7.199375 15.23050781 -8.08625 14.83992188 -9 14.4375 C-13.7909216 12.31361761 -13.7909216 12.31361761 -16 9 C-16.4375 6.5625 -16.4375 6.5625 -16 4 C-11.94537788 -1.17313857 -6.06361546 -0.83972774 0 0 Z " fill="#F38F41" transform="translate(36,26)"/>
<path d="M0 0 C1.65 0 3.3 0 5 0 C5.33 4.62 5.66 9.24 6 14 C8.31 13.34 10.62 12.68 13 12 C13.33 8.04 13.66 4.08 14 0 C15.65 0 17.3 0 19 0 C19 4.95 19 9.9 19 15 C19.66 15 20.32 15 21 15 C21 15.66 21 16.32 21 17 C18.6875 17.625 18.6875 17.625 16 18 C15.01 17.34 14.02 16.68 13 16 C12.443125 16.33 11.88625 16.66 11.3125 17 C8.5406774 18.19862599 6.98619691 18.52258446 4 18 C1.17256099 15.2241566 0.0753436 13.64268087 -0.390625 9.66796875 C-0.34421875 8.51941406 -0.2978125 7.37085938 -0.25 6.1875 C-0.21390625 5.02605469 -0.1778125 3.86460938 -0.140625 2.66796875 C-0.07101563 1.34732422 -0.07101563 1.34732422 0 0 Z " fill="#F28E3C" transform="translate(43,34)"/>
<path d="M0 0 C11.61654135 4.03759398 11.61654135 4.03759398 15 9 C15.78224434 13.28972701 15.46505708 16.30241439 13 20 C8.09652673 18.50402511 4.06114713 17.21602666 0.83203125 12.9609375 C-0.90626662 8.86410401 -0.34844265 4.3516615 0 0 Z " fill="#70AE3E" transform="translate(83,8)"/>
<path d="M0 0 C1.32 0.66 2.64 1.32 4 2 C3.835 2.598125 3.67 3.19625 3.5 3.8125 C2.8885876 6.11344336 2.8885876 6.11344336 3 9 C3 14 3 19 3 24 C3.66 24 4.32 24 5 24 C5 24.66 5 25.32 5 26 C3.35 26.33 1.7 26.66 0 27 C-3.38132648 22.73658835 -3.49162419 18.65927907 -3.7890625 13.42578125 C-3.8507956 10.99170176 -3.8507956 10.99170176 -5 9 C-6.32 9 -7.64 9 -9 9 C-9 7.35 -9 5.7 -9 4 C-6 3 -6 3 -3 4 C-3 3.34 -3 2.68 -3 2 C-2.01 1.34 -1.02 0.68 0 0 Z " fill="#FCF5F0" transform="translate(84,25)"/>
<path d="M0 0 C0.33 1.32 0.66 2.64 1 4 C-3.455 3.01 -3.455 3.01 -8 2 C-7.35340676 5.07363556 -7.35340676 5.07363556 -5.1875 5.9921875 C-4.465625 6.28351562 -3.74375 6.57484375 -3 6.875 C-0.8125 7.8828125 -0.8125 7.8828125 1 9 C2 11.75 2 11.75 2 14 C-0.9505829 16.8611713 -2.47178981 17.94535757 -6.625 18.375 C-10 18 -10 18 -13 16 C-12.67 14.68 -12.34 13.36 -12 12 C-10.515 12.99 -10.515 12.99 -9 14 C-7.0103005 14.39013716 -5.00980131 14.73202649 -3 15 C-3.64659324 11.92636444 -3.64659324 11.92636444 -5.8125 11.0078125 C-6.534375 10.71648438 -7.25625 10.42515625 -8 10.125 C-11.85161232 8.320205 -11.85161232 8.320205 -13.1875 5.4375 C-13 3 -13 3 -11.75 1.25 C-7.75559226 -1.60314839 -4.6092494 -0.78270273 0 0 Z " fill="#F29141" transform="translate(108,34)"/>
<path d="M0 0 C1.8871875 0.061875 1.8871875 0.061875 3.8125 0.125 C3.40041189 5.37912337 2.63532913 8.40836057 -1.1875 12.125 C-4.6149141 13.97053067 -7.32255158 14.3458542 -11.1875 14.125 C-11.69182107 8.8296288 -10.47507779 6.25795494 -7.1875 2.125 C-4.09861478 0.06574319 -3.47814073 -0.1140374 0 0 Z " fill="#F3862F" transform="translate(110.1875,16.875)"/>
<path d="M0 0 C1.65 0 3.3 0 5 0 C5 4.95 5 9.9 5 15 C5.66 15 6.32 15 7 15 C7 15.66 7 16.32 7 17 C5.35 17.33 3.7 17.66 2 18 C-0.45391569 14.31912647 -0.22802759 11.55644412 -0.125 7.3125 C-0.11597656 6.61060547 -0.10695313 5.90871094 -0.09765625 5.18554688 C-0.07413704 3.45688475 -0.03826713 1.72839855 0 0 Z " fill="#EE8733" transform="translate(82,34)"/>
<path d="M0 0 C0.33 1.32 0.66 2.64 1 4 C-0.65 4 -2.3 4 -4 4 C-4.33 5.65 -4.66 7.3 -5 9 C-3.68 9 -2.36 9 -1 9 C-1 9.66 -1 10.32 -1 11 C-2.32 11.33 -3.64 11.66 -5 12 C-5.33 17.28 -5.66 22.56 -6 28 C-6.33 28 -6.66 28 -7 28 C-7.06058594 26.75863281 -7.12117188 25.51726563 -7.18359375 24.23828125 C-7.26803623 22.59634423 -7.35268236 20.95441768 -7.4375 19.3125 C-7.47681641 18.49587891 -7.51613281 17.67925781 -7.55664062 16.83789062 C-7.76979901 12.7878814 -8.14060445 8.97281978 -9 5 C-8.6875 2.75 -8.6875 2.75 -8 1 C-5.29120665 -0.35439668 -2.99066732 -0.06501451 0 0 Z " fill="#F38934" transform="translate(80,25)"/>
<path d="M0 0 C1.8871875 0.061875 1.8871875 0.061875 3.8125 0.125 C3.4825 1.445 3.1525 2.765 2.8125 4.125 C2.8125 3.135 2.8125 2.145 2.8125 1.125 C-0.84194862 2.1677966 -0.84194862 2.1677966 -3.1875 4.9375 C-3.5175 5.659375 -3.8475 6.38125 -4.1875 7.125 C-5.81496694 8.82996537 -7.47641311 10.50397032 -9.1875 12.125 C-8.1975 12.785 -7.2075 13.445 -6.1875 14.125 C-7.8375 14.125 -9.4875 14.125 -11.1875 14.125 C-11.69182107 8.8296288 -10.47507779 6.25795494 -7.1875 2.125 C-4.09861478 0.06574319 -3.47814073 -0.1140374 0 0 Z " fill="#F19343" transform="translate(110.1875,16.875)"/>
<path d="M0 0 C3.875 1.875 3.875 1.875 5 3 C7.67058851 3.14115161 10.32432238 3.04247107 13 3 C13 3.66 13 4.32 13 5 C13.99 5.33 14.98 5.66 16 6 C11.87484127 8.00007696 8.5659292 8.41508447 4 8 C1.5625 6.8125 1.5625 6.8125 0 5 C-0.25 2.3125 -0.25 2.3125 0 0 Z " fill="#F2994E" transform="translate(20,44)"/>
<path d="M0 0 C2.0625 0.4375 2.0625 0.4375 4 1 C4.125 4.375 4.125 4.375 4 8 C3.34 8.66 2.68 9.32 2 10 C0.68 10 -0.64 10 -2 10 C-1.85950482 8.52031676 -1.71245174 7.04125484 -1.5625 5.5625 C-1.48128906 4.73878906 -1.40007813 3.91507813 -1.31640625 3.06640625 C-1 1 -1 1 0 0 Z " fill="#F38934" transform="translate(35,39)"/>
<path d="M0 0 C0.66 0 1.32 0 2 0 C2 5.28 2 10.56 2 16 C1.01 15.67 0.02 15.34 -1 15 C-1.02693575 12.87506859 -1.04636628 10.75004088 -1.0625 8.625 C-1.07410156 7.44164062 -1.08570312 6.25828125 -1.09765625 5.0390625 C-1 2 -1 2 0 0 Z " fill="#F68223" transform="translate(71,37)"/>
<path d="M0 0 C5.75 1.75 5.75 1.75 8 4 C7.34 5.65 6.68 7.3 6 9 C2.37 7.35 -1.26 5.7 -5 4 C-5 3.67 -5 3.34 -5 3 C-3.35 3 -1.7 3 0 3 C0 3.66 0 4.32 0 5 C0.99 5 1.98 5 3 5 C3 4.01 3 3.02 3 2 C2.01 1.67 1.02 1.34 0 1 C0 0.67 0 0.34 0 0 Z " fill="#F1994F" transform="translate(28,35)"/>
<path d="M0 0 C0.33 1.32 0.66 2.64 1 4 C-0.65 4 -2.3 4 -4 4 C-4.33 5.65 -4.66 7.3 -5 9 C-5.33 9 -5.66 9 -6 9 C-6 7.02 -6 5.04 -6 3 C-6.99 2.67 -7.98 2.34 -9 2 C-5.5647952 -0.29013653 -4.014669 -0.17842973 0 0 Z " fill="#EE9F56" transform="translate(80,25)"/>
<path d="M0 0 C0.66 0 1.32 0 2 0 C2 0.99 2 1.98 2 3 C4.31 3.33 6.62 3.66 9 4 C9 4.99 9 5.98 9 7 C8.01 7 7.02 7 6 7 C6 6.34 6 5.68 6 5 C4.02 5 2.04 5 0 5 C-0.5625 3.0625 -0.5625 3.0625 -1 1 C-0.67 0.67 -0.34 0.34 0 0 Z " fill="#F8842B" transform="translate(22,33)"/>
<path d="M0 0 C0.66 0.33 1.32 0.66 2 1 C-0.31 3.31 -2.62 5.62 -5 8 C-4.01 8.66 -3.02 9.32 -2 10 C-3.65 10 -5.3 10 -7 10 C-7.125 7.125 -7.125 7.125 -7 4 C-6.34 3.34 -5.68 2.68 -5 2 C-5 2.66 -5 3.32 -5 4 C-3.35 2.68 -1.7 1.36 0 0 Z " fill="#F0A160" transform="translate(106,21)"/>
<path d="M0 0 C0.33 0 0.66 0 1 0 C1 4.95 1 9.9 1 15 C1.66 15 2.32 15 3 15 C3 15.66 3 16.32 3 17 C1.35 17.33 -0.3 17.66 -2 18 C-2.33 17.34 -2.66 16.68 -3 16 C-2.34 15.67 -1.68 15.34 -1 15 C-1.01160156 14.08476563 -1.02320312 13.16953125 -1.03515625 12.2265625 C-1.04417969 11.03804687 -1.05320312 9.84953125 -1.0625 8.625 C-1.07410156 7.44164062 -1.08570312 6.25828125 -1.09765625 5.0390625 C-1 2 -1 2 0 0 Z " fill="#EF9449" transform="translate(86,34)"/>
<path d="M0 0 C0.33 0 0.66 0 1 0 C1.04898438 1.13179687 1.09796875 2.26359375 1.1484375 3.4296875 C1.22346514 4.91148339 1.29901297 6.393253 1.375 7.875 C1.4059375 8.62136719 1.436875 9.36773437 1.46875 10.13671875 C1.55643831 14.53473188 1.55643831 14.53473188 4 18 C3.34 18.66 2.68 19.32 2 20 C1.01 19.67 0.02 19.34 -1 19 C-0.67 12.73 -0.34 6.46 0 0 Z " fill="#F09748" transform="translate(69,36)"/>
<path d="M0 0 C1.32 0.66 2.64 1.32 4 2 C3.67 3.32 3.34 4.64 3 6 C1.35 5.67 -0.3 5.34 -2 5 C-1.125 1.125 -1.125 1.125 0 0 Z " fill="#EC9746" transform="translate(84,25)"/>
<path d="M0 0 C0.99 0 1.98 0 3 0 C3 2.64 3 5.28 3 8 C2.01 8.33 1.02 8.66 0 9 C0 6.03 0 3.06 0 0 Z " fill="#F38129" transform="translate(83,34)"/>
<path d="M0 0 C1.485 0.99 1.485 0.99 3 2 C3 2.99 3 3.98 3 5 C4.98 5 6.96 5 9 5 C9 5.33 9 5.66 9 6 C2.375 6.25 2.375 6.25 -1 4 C-0.67 2.68 -0.34 1.36 0 0 Z " fill="#F4A96F" transform="translate(96,46)"/>
<path d="M0 0 C1.32 0.66 2.64 1.32 4 2 C3.67 3.32 3.34 4.64 3 6 C0.36 5.01 -2.28 4.02 -5 3 C-5 2.67 -5 2.34 -5 2 C-3.35 1.67 -1.7 1.34 0 1 C0 0.67 0 0.34 0 0 Z " fill="#EF9B51" transform="translate(34,26)"/>
</svg>
