<?xml version="1.0" encoding="UTF-8"?>
<svg version="1.1" xmlns="http://www.w3.org/2000/svg" width="251" height="80">
<path d="M0 0 C82.83 0 165.66 0 251 0 C251 26.4 251 52.8 251 80 C168.17 80 85.34 80 0 80 C0 53.6 0 27.2 0 0 Z " fill="#FCFBFB" transform="translate(0,0)"/>
<path d="M0 0 C1.65 0 3.3 0 5 0 C5 1.65 5 3.3 5 5 C3.9275 5.391875 2.855 5.78375 1.75 6.1875 C-2.58198545 8.02903227 -4.90058741 10.80117481 -7 15 C-7.54360446 19.95482094 -7.56437074 23.87125852 -5.3125 28.375 C-2.53604336 31.52665348 0.22623629 34.11311814 4 36 C4.67258667 38.33163378 5.33847444 40.6652039 6 43 C6.99414593 44.67016516 7.9935725 46.33720673 9 48 C9.6875 50.8125 9.6875 50.8125 10 53 C7.625 52.6875 7.625 52.6875 5 52 C4.34 51.01 3.68 50.02 3 49 C2.91773332 52.04386724 3.02391783 54.07175348 4 57 C3.01 57 2.02 57 1 57 C1 50.07 1 43.14 1 36 C-0.65 35.34 -2.3 34.68 -4 34 C-4 33.34 -4 32.68 -4 32 C-4.47050781 32.3609375 -4.94101562 32.721875 -5.42578125 33.09375 C-6.04839844 33.5578125 -6.67101563 34.021875 -7.3125 34.5 C-7.92738281 34.9640625 -8.54226562 35.428125 -9.17578125 35.90625 C-11 37 -11 37 -14 37 C-13.67201416 37.5347998 -13.34402832 38.06959961 -13.00610352 38.62060547 C-11.52405927 41.03822134 -10.04326511 43.45660048 -8.5625 45.875 C-8.04623047 46.71675781 -7.52996094 47.55851562 -6.99804688 48.42578125 C-6.50498047 49.23144531 -6.01191406 50.03710938 -5.50390625 50.8671875 C-4.82050171 51.98262939 -4.82050171 51.98262939 -4.12329102 53.12060547 C-3 55 -3 55 -2 57 C-14.17051257 59.04850212 -14.17051257 59.04850212 -20 57 C-24.6739043 52.93510867 -27.42527265 47.1975126 -30.04882812 41.67407227 C-30.89708081 39.81948462 -30.89708081 39.81948462 -33 39 C-33 45.27 -33 51.54 -33 58 C-37.95 58 -42.9 58 -48 58 C-48 47.11 -48 36.22 -48 25 C-32.5625 24.5625 -32.5625 24.5625 -27.68579102 24.43188477 C-25.80138306 24.3747229 -25.80138306 24.3747229 -23.87890625 24.31640625 C-22.5854126 24.27974854 -21.29191895 24.24309082 -19.95922852 24.20532227 C-17.11444992 24.3332722 -17.11444992 24.3332722 -16 23 C-15.83333333 20.5 -15.83333333 20.5 -16 18 C-17.91219585 16.08780415 -21.33645504 16.75564702 -23.87890625 16.68359375 C-24.5655687 16.66281265 -25.25223114 16.64203156 -25.95970154 16.62062073 C-28.16052935 16.55505857 -30.36147975 16.49620985 -32.5625 16.4375 C-34.05144514 16.39432108 -35.54037773 16.350707 -37.02929688 16.30664062 C-40.68606553 16.1993707 -44.34297318 16.09812228 -48 16 C-48 11.71 -48 7.42 -48 3 C-43.16204012 2.87560625 -38.32502819 2.7852921 -33.48583984 2.7253418 C-31.84277106 2.70032946 -30.19981206 2.66630774 -28.55712891 2.62280273 C-11.73558083 2.18873121 -11.73558083 2.18873121 -5 8 C-2.21611025 6.29374499 -1.14615794 5.52373261 -0.25 2.3125 C-0.1675 1.549375 -0.085 0.78625 0 0 Z " fill="#E92329" transform="translate(67,13)"/>
<path d="M0 0 C1.32 0 2.64 0 4 0 C4 0.66 4 1.32 4 2 C5.71896484 1.96519531 5.71896484 1.96519531 7.47265625 1.9296875 C9.0025976 1.91091521 10.53254606 1.89271659 12.0625 1.875 C12.81466797 1.85824219 13.56683594 1.84148438 14.34179688 1.82421875 C23.58657369 1.74417739 32.27177817 4.43998372 39 11 C44.05622643 18.2407126 46.59676218 24.04856731 46 33 C44.09384558 41.96538732 39.37888492 48.75401695 31.90625 53.9921875 C25.68174138 57.28301378 19.9974447 57.24605932 13.125 57.125 C12.15046875 57.11597656 11.1759375 57.10695312 10.171875 57.09765625 C7.78099272 57.07421623 5.39062739 57.04140442 3 57 C3.26041667 54.98177083 3.52083333 52.96354167 3.78125 50.9453125 C4.0372485 48.99501656 4.0372485 48.99501656 4 47 C2.68 46.34 1.36 45.68 0 45 C0.66 42.03 1.32 39.06 2 36 C3.98 35.505 3.98 35.505 6 35 C6 36.98 6 38.96 6 41 C8.73237794 40.96686201 11.45674843 40.89958039 14.1875 40.8125 C14.95642578 40.80669922 15.72535156 40.80089844 16.51757812 40.79492188 C20.85824727 40.62725654 22.52814386 40.39290505 25.98828125 37.51171875 C26.65214844 36.68285156 27.31601563 35.85398438 28 35 C28.33 34.67 28.66 34.34 29 34 C29.49282122 29.15392468 29.51588137 26.92858647 27.125 22.625 C23.62761615 18.89445722 18.87131305 18.5486139 14 18 C14 20.64 14 23.28 14 26 C13.67 26 13.34 26 13 26 C12.96261719 25.19175781 12.92523438 24.38351563 12.88671875 23.55078125 C12.82097656 22.48214844 12.75523438 21.41351563 12.6875 20.3125 C12.62949219 19.25675781 12.57148437 18.20101563 12.51171875 17.11328125 C11.94464125 13.66319904 11.12201998 11.76620461 9 9 C6.77706054 7.3662283 6.77706054 7.3662283 4.3125 6.1875 C3.50425781 5.76855469 2.69601563 5.34960938 1.86328125 4.91796875 C1.24839844 4.61503906 0.63351563 4.31210937 0 4 C0 2.68 0 1.36 0 0 Z " fill="#1A1917" transform="translate(77,13)"/>
<path d="M0 0 C9 0 9 0 11.54296875 1.12890625 C13.60878811 3.78179492 13.43167511 5.61292533 13.3125 8.9375 C13.28800781 9.97777344 13.26351562 11.01804687 13.23828125 12.08984375 C13 15 13 15 12.453125 17.05078125 C11.86650266 19.57426874 12.13371472 21.68470211 12.4375 24.25 C12.53933594 25.14203125 12.64117187 26.0340625 12.74609375 26.953125 C12.82988281 27.62859375 12.91367188 28.3040625 13 29 C11.68 29 10.36 29 9 29 C7.86235649 24.73383684 7 21.43513689 7 17 C6.01 17 5.02 17 4 17 C4 20.96 4 24.92 4 29 C2.68 29 1.36 29 0 29 C0 19.43 0 9.86 0 0 Z " fill="#242323" transform="translate(148,28)"/>
<path d="M0 0 C0.99 0 1.98 0 3 0 C4.98 4.29 6.96 8.58 9 13 C9.33 8.71 9.66 4.42 10 0 C11.32 0 12.64 0 14 0 C14 9.57 14 19.14 14 29 C13.01 29 12.02 29 11 29 C9.35 25.37 7.7 21.74 6 18 C5.67 21.63 5.34 25.26 5 29 C3.35 29 1.7 29 0 29 C0 19.43 0 9.86 0 0 Z " fill="#282725" transform="translate(185,28)"/>
<path d="M0 0 C1.2065625 0.0309375 1.2065625 0.0309375 2.4375 0.0625 C3.27908017 3.95659888 4.1093106 7.85303312 4.9375 11.75 C5.17597656 12.85279297 5.41445312 13.95558594 5.66015625 15.09179688 C5.88574219 16.15849609 6.11132812 17.22519531 6.34375 18.32421875 C6.55322266 19.30350342 6.76269531 20.28278809 6.97851562 21.29174805 C7.4175481 23.94205633 7.52305667 26.38243732 7.4375 29.0625 C6.1175 29.0625 4.7975 29.0625 3.4375 29.0625 C3.1075 27.4125 2.7775 25.7625 2.4375 24.0625 C0.4575 24.0625 -1.5225 24.0625 -3.5625 24.0625 C-3.5625 25.7125 -3.5625 27.3625 -3.5625 29.0625 C-4.8825 29.0625 -6.2025 29.0625 -7.5625 29.0625 C-7.794373 22.65233347 -6.9471697 16.88814987 -5.625 10.625 C-5.35139648 9.26084961 -5.35139648 9.26084961 -5.07226562 7.86914062 C-3.47352354 0.08472009 -3.47352354 0.08472009 0 0 Z " fill="#2B2A29" transform="translate(173.5625,27.9375)"/>
<path d="M0 0 C0.99 0.66 1.98 1.32 3 2 C3.1875 5.625 3.1875 5.625 3 9 C1.68 9 0.36 9 -1 9 C-1 7.35 -1 5.7 -1 4 C-2.32 4.33 -3.64 4.66 -5 5 C-4.96219702 7.37233611 -4.96219702 7.37233611 -4 10 C-1.05763218 12.21168225 -1.05763218 12.21168225 2 14 C3.2220897 16.4441794 3.23641068 18.21029872 3.3125 20.9375 C3.34988281 21.81277344 3.38726562 22.68804687 3.42578125 23.58984375 C3 26 3 26 1.20703125 27.82421875 C-2.1234262 29.59849785 -4.43496566 28.92426816 -8 28 C-10.4294516 24.3558226 -10.16179575 22.28758728 -10 18 C-8.68 18 -7.36 18 -6 18 C-5.67 19.65 -5.34 21.3 -5 23 C-3.68 23.33 -2.36 23.66 -1 24 C-2.2177496 17.78947702 -3.95421713 15.75749788 -9 12 C-10.52491998 8.95016004 -10.23562548 6.3576631 -10 3 C-7.77361 -1.05988764 -4.20558658 -0.3754988 0 0 Z " fill="#262525" transform="translate(230,28)"/>
<path d="M0 0 C2.375 1.125 2.375 1.125 4 3 C4.25 6.1875 4.25 6.1875 4 9 C2.68 9 1.36 9 0 9 C0 7.68 0 6.36 0 5 C-1.65 5 -3.3 5 -5 5 C-4.67 11.27 -4.34 17.54 -4 24 C-2.68 24.33 -1.36 24.66 0 25 C0 23.02 0 21.04 0 19 C1.65 19 3.3 19 5 19 C4.70980098 22.77258731 4.48342371 25.32665983 2.25 28.4375 C0 30 0 30 -2.5 30.5625 C-5 30 -5 30 -7.12890625 28.16015625 C-9.90267251 23.47544456 -9.54488755 19.21666458 -9.4375 13.875 C-9.44458984 12.87339844 -9.45167969 11.87179688 -9.45898438 10.83984375 C-9.3951629 3.5249211 -9.3951629 3.5249211 -7.65649414 1.21533203 C-5.07178114 -0.68101304 -3.11124967 -0.38096935 0 0 Z " fill="#282726" transform="translate(139,28)"/>
<path d="M0 0 C3.96 0 7.92 0 12 0 C12 1.32 12 2.64 12 4 C9.36 4 6.72 4 4 4 C4 6.64 4 9.28 4 12 C5.65 12 7.3 12 9 12 C9 13.32 9 14.64 9 16 C7.68 16 6.36 16 5 16 C5 18.64 5 21.28 5 24 C7.31 24 9.62 24 12 24 C12 25.65 12 27.3 12 29 C8.04 29 4.08 29 0 29 C0 19.43 0 9.86 0 0 Z " fill="#292827" transform="translate(204,28)"/>
<path d="M0 0 C0.99 0 1.98 0 3 0 C3.268125 1.051875 3.53625 2.10375 3.8125 3.1875 C4.87873512 6.61067591 6.16732123 8.97209595 8 12 C8.6875 14.8125 8.6875 14.8125 9 17 C6.625 16.6875 6.625 16.6875 4 16 C3.34 15.01 2.68 14.02 2 13 C1.91773332 16.04386724 2.02391783 18.07175348 3 21 C2.01 21 1.02 21 0 21 C0 14.07 0 7.14 0 0 Z " fill="#282726" transform="translate(68,49)"/>
<path d="M0 0 C0.66 0 1.32 0 2 0 C2 0.66 2 1.32 2 2 C2.66 2 3.32 2 4 2 C4.3125 4.625 4.3125 4.625 4 8 C2.35830472 10.02054804 0.69088222 12.02043058 -1 14 C-1.873938 17.22433127 -1.873938 17.22433127 -2 20 C-2.33 20 -2.66 20 -3 20 C-3 18.02 -3 16.04 -3 14 C-3.99 14 -4.98 14 -6 14 C-6 13.34 -6 12.68 -6 12 C-7.32 11.67 -8.64 11.34 -10 11 C-9.16855469 10.56300781 -9.16855469 10.56300781 -8.3203125 10.1171875 C-3.4210148 7.38113153 -3.4210148 7.38113153 -0.5 2.6875 C-0.335 1.800625 -0.17 0.91375 0 0 Z " fill="#C0C0C0" transform="translate(86,34)"/>
<path d="M0 0 C3.29714793 0.32971479 4.6226839 0.6226839 7 3 C6.625 5.625 6.625 5.625 6 8 C3.125 8.625 3.125 8.625 0 9 C-2 7 -2 7 -2.25 4.5 C-2 2 -2 2 0 0 Z " fill="#BDAAA9" transform="translate(73,19)"/>
<path d="M0 0 C0.33 0 0.66 0 1 0 C0.67 2.31 0.34 4.62 0 7 C6.27 7.33 12.54 7.66 19 8 C19 8.33 19 8.66 19 9 C14.60454738 9.19725192 10.20863314 9.38110072 5.8125 9.5625 C3.94368164 9.64661133 3.94368164 9.64661133 2.03710938 9.73242188 C0.83505859 9.78076172 -0.36699219 9.82910156 -1.60546875 9.87890625 C-3.26292114 9.94960327 -3.26292114 9.94960327 -4.95385742 10.02172852 C-7.79317029 10.00147534 -10.24796085 9.66505747 -13 9 C-10.48250143 7.54759698 -8.88389161 6.99052176 -5.9375 6.75 C-2.68395814 6.2828817 -2.68395814 6.2828817 -1.125 2.9375 C-0.75375 1.968125 -0.3825 0.99875 0 0 Z " fill="#B7B6B6" transform="translate(81,62)"/>
<path d="M0 0 C2 2 2 2 3 5 C5.01508358 5.73323796 5.01508358 5.73323796 7 6 C7.33 5.01 7.66 4.02 8 3 C8 3.66 8 4.32 8 5 C8.66 5.33 9.32 5.66 10 6 C8.3125 8.0625 8.3125 8.0625 6 10 C2.60845705 9.83849795 1.41703243 9.41703243 -1 7 C-0.625 3.375 -0.625 3.375 0 0 Z " fill="#DFDFDF" transform="translate(70,60)"/>
<path d="M0 0 C1.65 0 3.3 0 5 0 C5 2.64 5 5.28 5 8 C3.35 8 1.7 8 0 8 C0 5.36 0 2.72 0 0 Z " fill="#E4E4E4" transform="translate(152,33)"/>
<path d="M0 0 C0.268125 0.598125 0.53625 1.19625 0.8125 1.8125 C1.86180044 4.04292693 1.86180044 4.04292693 3.625 5.4375 C5 7 5 7 5.1875 9.6875 C5.125625 10.450625 5.06375 11.21375 5 12 C0.125 9.125 0.125 9.125 -1 8 C-1.125 4.5 -1.125 4.5 -1 1 C-0.67 0.67 -0.34 0.34 0 0 Z " fill="#1D1B1B" transform="translate(222,32)"/>
<path d="M0 0 C2.475 0.99 2.475 0.99 5 2 C4.34 5.63 3.68 9.26 3 13 C1.02 13 -0.96 13 -3 13 C-2.67 12.34 -2.34 11.68 -2 11 C-0.02 11.495 -0.02 11.495 2 12 C1.505 10.4221875 1.505 10.4221875 1 8.8125 C0.16033218 5.61126643 -0.19750904 3.2588992 0 0 Z " fill="#343332" transform="translate(227,40)"/>
<path d="M0 0 C1.65 0 3.3 0 5 0 C5 1.65 5 3.3 5 5 C2.41210938 6.07421875 2.41210938 6.07421875 -0.17578125 7.1484375 C-2.26533932 8.06806692 -2.26533932 8.06806692 -5 10 C-3.25 6.125 -3.25 6.125 -1 5 C-0.34444881 2.47266765 -0.34444881 2.47266765 0 0 Z " fill="#575656" transform="translate(67,13)"/>
<path d="M0 0 C0.53625 0.721875 1.0725 1.44375 1.625 2.1875 C4.2092888 5.247842 6.87248014 7.51220011 10 10 C9.01 10.33 8.02 10.66 7 11 C6.01 10.34 5.02 9.68 4 9 C4 8.34 4 7.68 4 7 C1.525 8.485 1.525 8.485 -1 10 C-0.67 6.7 -0.34 3.4 0 0 Z " fill="#C0585B" transform="translate(59,38)"/>
<path d="M0 0 C1.67542976 0.28604898 3.34385343 0.61781233 5 1 C4.67 2.65 4.34 4.3 4 6 C2.02 6 0.04 6 -2 6 C-1.125 1.125 -1.125 1.125 0 0 Z " fill="#C07175" transform="translate(73,19)"/>
<path d="M0 0 C0 0.99 0 1.98 0 3 C-0.66 3.66 -1.32 4.32 -2 5 C-2 5.99 -2 6.98 -2 8 C-2.66 8 -3.32 8 -4 8 C-4 7.34 -4 6.68 -4 6 C-5.32 5.67 -6.64 5.34 -8 5 C-4.04 2.525 -4.04 2.525 0 0 Z " fill="#AFAEAE" transform="translate(84,40)"/>
<path d="M0 0 C0.66 0 1.32 0 2 0 C2.33 2.97 2.66 5.94 3 9 C2.01 9 1.02 9 0 9 C0 6.03 0 3.06 0 0 Z " fill="#D3D2D2" transform="translate(172,39)"/>
<path d="M0 0 C2.1519437 3.22791555 2.20086443 4.28400809 2 8 C0.68 8 -0.64 8 -2 8 C-2 7.01 -2 6.02 -2 5 C-1.34 5 -0.68 5 0 5 C0 3.35 0 1.7 0 0 Z " fill="#292826" transform="translate(159,49)"/>
<path d="M0 0 C2.34058637 2.12780579 3.70700306 4.11562221 5 7 C3.02 7 1.04 7 -1 7 C-0.67 4.69 -0.34 2.38 0 0 Z " fill="#E2343C" transform="translate(60,63)"/>
</svg>
